<?xml version="1.0" encoding="utf-8"?>
<!-- Generator: Adobe Illustrator 14.0.0, SVG Export Plug-In  -->
<!DOCTYPE svg PUBLIC "-//W3C//DTD SVG 1.1//EN" "http://www.w3.org/Graphics/SVG/1.1/DTD/svg11.dtd" [
	<!ENTITY ns_flows "http://ns.adobe.com/Flows/1.0/">
]>
<svg version="1.1"
	 xmlns="http://www.w3.org/2000/svg" xmlns:xlink="http://www.w3.org/1999/xlink" xmlns:a="http://ns.adobe.com/AdobeSVGViewerExtensions/3.0/"
	 x="0px" y="0px" width="20px" height="19px" viewBox="-0.716 -0.042 20 19" enable-background="new -0.716 -0.042 20 19"
	 xml:space="preserve">
<defs>
</defs>
<path fill="#FF3030" d="M15.817,2.712c1.8,1.8,2.688,3.984,2.688,6.552s-0.912,4.729-2.712,6.529c-1.8,1.8-3.984,2.688-6.577,2.688
	c-2.52,0-4.704-0.888-6.504-2.688C0.912,13.993,0,11.833,0,9.265s0.888-4.752,2.688-6.552C4.489,0.912,6.649,0,9.217,0
	C11.833,0,14.018,0.912,15.817,2.712z M3.313,3.336c-1.608,1.608-2.424,3.6-2.424,5.928c0,2.304,0.816,4.272,2.424,5.88
	c1.632,1.632,3.6,2.448,5.904,2.448c2.329,0,4.296-0.816,5.905-2.448c1.632-1.608,2.448-3.576,2.448-5.88
	c0-2.328-0.816-4.32-2.424-5.928c-1.608-1.608-3.6-2.424-5.929-2.424C6.913,0.912,4.945,1.728,3.313,3.336z M12.649,10.153h-2.496
	v2.496c0.696,0.312,1.176,0.888,1.176,1.752c0,1.152-0.888,2.088-2.04,2.088c-1.176,0-2.04-0.912-2.04-2.088
	c0-0.864,0.456-1.44,1.104-1.752v-2.496H5.857c-0.312,0.696-0.888,1.176-1.752,1.176c-1.152,0-2.088-0.888-2.088-2.041
	c0-1.152,0.912-2.04,2.088-2.04c0.84,0,1.44,0.456,1.752,1.104h2.496V5.856C7.657,5.544,7.249,4.968,7.249,4.104
	c0-1.176,0.792-2.064,1.968-2.064c1.176,0,2.041,0.888,2.041,2.064c0,0.864-0.456,1.44-1.104,1.752v2.496h2.496
	c0.312-0.696,0.888-1.176,1.752-1.176c1.176,0,2.064,0.864,2.064,2.04s-0.888,2.04-2.064,2.04
	C13.538,11.257,12.961,10.801,12.649,10.153z"/>
</svg>
