<?xml version="1.0" encoding="utf-8"?>
<!-- Generator: Adobe Illustrator 14.0.0, SVG Export Plug-In  -->
<!DOCTYPE svg PUBLIC "-//W3C//DTD SVG 1.1//EN" "http://www.w3.org/Graphics/SVG/1.1/DTD/svg11.dtd" [
	<!ENTITY ns_flows "http://ns.adobe.com/Flows/1.0/">
]>
<svg version="1.1"
	 xmlns="http://www.w3.org/2000/svg" xmlns:xlink="http://www.w3.org/1999/xlink" xmlns:a="http://ns.adobe.com/AdobeSVGViewerExtensions/3.0/"
	 x="0px" y="0px" width="17px" height="20px" viewBox="-0.408 -0.422 17 20" enable-background="new -0.408 -0.422 17 20"
	 xml:space="preserve">
<defs>
</defs>
<path d="M0.408,3.264C1.2,1.464,2.904,0,5.472,0c1.056,0,2.136,0.192,3.216,0.576c1.872,0.696,3.864,1.704,5.353,2.592
	c0.624,0.384,1.008,0.576,1.152,0.576c0.264,0,0.408-0.24,0.48-0.432l0.12-0.288c0.024-0.096,0.096-0.144,0.192-0.144
	c0.168,0,0.192,0.096,0.192,0.264v0.792c0,0.312-0.024,0.768-0.024,1.416c0,0.072-0.072,0.096-0.216,0.096
	c-0.072,0-0.264-0.096-0.504-0.313c-0.288-0.216-0.624-0.456-1.056-0.72l-1.488-0.96c-0.576-0.36-1.176-0.672-1.824-0.96
	C9.913,1.992,8.449,1.488,6.889,1.488c-3,0-4.249,1.656-4.249,4.464c0,0.192,0.024,0.384,0.024,0.576
	c0,0.888,0.216,2.016,0.216,2.832v0.24c0,0.768-0.216,1.752-0.216,2.544c0,0.192-0.024,0.384-0.024,0.576
	c0,2.832,1.296,4.488,4.249,4.488c0.696,0,1.416-0.096,2.112-0.312c1.416-0.384,2.784-0.96,3.864-1.656l1.488-0.96
	c0.456-0.288,0.792-0.528,1.056-0.744c0.264-0.192,0.456-0.288,0.528-0.288c0.144,0,0.216,0.024,0.216,0.096
	c0,0.648,0.024,1.104,0.024,1.416v0.768c0,0.168-0.024,0.288-0.192,0.288c-0.096,0-0.168-0.048-0.192-0.144
	c-0.096-0.288-0.216-0.744-0.6-0.744c-0.144,0-0.528,0.192-1.152,0.6c-0.648,0.384-1.416,0.816-2.352,1.296
	c-1.632,0.84-3.889,1.872-6.217,1.872c-1.704,0-3-0.648-3.912-1.536C0.696,16.273,0,14.978,0,13.345
	c0-1.656,0.624-3.048,1.488-3.984C0.624,8.353,0,7.057,0,5.353C0,4.608,0.144,3.913,0.408,3.264z M5.208,5.041
	c0-0.936,0.744-1.704,1.68-1.704c0.936,0,1.728,0.768,1.728,1.704c0,0.96-0.768,1.704-1.728,1.704C5.928,6.745,5.208,6,5.208,5.041z
	 M5.208,13.657c0-0.96,0.72-1.728,1.68-1.728c0.96,0,1.728,0.768,1.728,1.728s-0.768,1.704-1.728,1.704
	C5.928,15.361,5.208,14.617,5.208,13.657z M10.633,9.361c0-0.96,0.768-1.728,1.728-1.728s1.68,0.768,1.68,1.728
	c0,0.936-0.744,1.704-1.68,1.704S10.633,10.297,10.633,9.361z"/>
</svg>
