<?xml version="1.0" encoding="utf-8"?>
<!-- Generator: Adobe Illustrator 14.0.0, SVG Export Plug-In  -->
<!DOCTYPE svg PUBLIC "-//W3C//DTD SVG 1.1//EN" "http://www.w3.org/Graphics/SVG/1.1/DTD/svg11.dtd" [
	<!ENTITY ns_flows "http://ns.adobe.com/Flows/1.0/">
]>
<svg version="1.1"
	 xmlns="http://www.w3.org/2000/svg" xmlns:xlink="http://www.w3.org/1999/xlink" xmlns:a="http://ns.adobe.com/AdobeSVGViewerExtensions/3.0/"
	 x="0px" y="0px" width="20px" height="18px" viewBox="-0.932 -0.103 20 18" enable-background="new -0.932 -0.103 20 18"
	 xml:space="preserve">
<defs>
</defs>
<path fill="#FF3030" d="M15.793,14.233c-1.8,1.8-3.984,2.688-6.577,2.688c-2.521,0-4.705-0.888-6.505-2.688
	C0.912,12.433,0,10.273,0,7.705h0.912c0,2.304,0.816,4.272,2.424,5.88c1.632,1.632,3.6,2.448,5.928,2.448
	c2.304,0,4.272-0.816,5.905-2.448c1.608-1.608,2.424-3.576,2.424-5.88h0.912C18.505,10.273,17.593,12.433,15.793,14.233z
	 M12.625,8.113h-2.496v2.496c0.696,0.312,1.176,0.888,1.176,1.752c0,1.152-0.888,2.088-2.04,2.088c-1.176,0-2.04-0.912-2.04-2.088
	c0-0.864,0.456-1.44,1.104-1.752V8.113H5.833C5.521,8.809,4.944,9.289,4.08,9.289c-1.152,0-2.088-0.888-2.088-2.04
	c0-1.152,0.912-2.04,2.088-2.04c0.84,0,1.44,0.456,1.752,1.104h2.496V3.816C7.632,3.504,7.225,2.928,7.225,2.064
	C7.225,0.888,8.017,0,9.193,0c1.176,0,2.04,0.888,2.04,2.064c0,0.864-0.456,1.44-1.104,1.752v2.496h2.496
	c0.312-0.696,0.888-1.176,1.752-1.176c1.176,0,2.064,0.864,2.064,2.041c0,1.176-0.888,2.04-2.064,2.04
	C13.513,9.217,12.937,8.761,12.625,8.113z"/>
</svg>
